<?xml version="1.0" ?><!DOCTYPE svg  PUBLIC '-//W3C//DTD SVG 1.1//EN'  'http://www.w3.org/Graphics/SVG/1.1/DTD/svg11.dtd'><svg enable-background="new 0 0 512 512" height="512px" id="Layer_1" version="1.1" viewBox="0 0 512 512" width="512px" xml:space="preserve" xmlns="http://www.w3.org/2000/svg" xmlns:xlink="http://www.w3.org/1999/xlink"><g><path d="M314.657,270.182c0,10.202-17.102,44.508-59.389,44.508c-33.833,0-58.566-33.565-58.566-43.766   L171.215,49.188c0-5.096,33.715-25.963,83.818-25.963c59.001,0,83.818,20.859,83.818,25.963L314.657,270.182z" fill="#E7A419"/></g><linearGradient gradientUnits="userSpaceOnUse" id="SVGID_1_" x1="159.2847" x2="350.0449" y1="476.2725" y2="476.2725"><stop offset="0.0549" style="stop-color:#000000"/><stop offset="0.1048" style="stop-color:#0C0C0C"/><stop offset="0.1758" style="stop-color:#1A1A1A"/><stop offset="0.243" style="stop-color:#131313"/><stop offset="0.339" style="stop-color:#000000"/><stop offset="0.3407" style="stop-color:#000000"/><stop offset="0.6154" style="stop-color:#000000"/><stop offset="0.7173" style="stop-color:#0C0C0C"/><stop offset="0.8626" style="stop-color:#1A1A1A"/><stop offset="0.9029" style="stop-color:#131313"/><stop offset="0.9606" style="stop-color:#000000"/><stop offset="0.9615" style="stop-color:#000000"/></linearGradient><path d="M350.045,476.203c0,0-26.461,11.881-92.462,11.881c-67.397,0-98.298-11.881-98.298-11.881v-11.742  h190.76V476.203z" fill="url(#SVGID_1_)"/><linearGradient gradientUnits="userSpaceOnUse" id="SVGID_2_" x1="159.2671" x2="350.0488" y1="439.1582" y2="439.1582"><stop offset="0.0549" style="stop-color:#000000"/><stop offset="0.0581" style="stop-color:#020202"/><stop offset="0.1348" style="stop-color:#252525"/><stop offset="0.1758" style="stop-color:#333333"/><stop offset="0.2144" style="stop-color:#2C2C2C"/><stop offset="0.2695" style="stop-color:#191919"/><stop offset="0.3242" style="stop-color:#000000"/><stop offset="0.6429" style="stop-color:#000000"/><stop offset="0.6476" style="stop-color:#020202"/><stop offset="0.7626" style="stop-color:#252525"/><stop offset="0.8242" style="stop-color:#333333"/><stop offset="0.8599" style="stop-color:#2C2C2C"/><stop offset="0.9109" style="stop-color:#191919"/><stop offset="0.9615" style="stop-color:#000000"/></linearGradient><path d="M350.049,465.048c0,0-54.379,11.619-95.049,11.619c-43.458,0-95.733-11.619-95.733-11.619V401.65  c0,0,52.608,8.018,98.233,8.018c44.375,0,92.549-8.018,92.549-8.018V465.048z" fill="url(#SVGID_2_)"/><linearGradient gradientUnits="userSpaceOnUse" id="SVGID_3_" x1="159.2671" x2="350.0488" y1="401.1055" y2="401.1055"><stop offset="0" style="stop-color:#000000"/><stop offset="0.0809" style="stop-color:#343434"/><stop offset="0.1464" style="stop-color:#585858"/><stop offset="0.1813" style="stop-color:#666666"/><stop offset="0.2086" style="stop-color:#5F5F5F"/><stop offset="0.2476" style="stop-color:#4C4C4C"/><stop offset="0.2935" style="stop-color:#2D2D2D"/><stop offset="0.3187" style="stop-color:#1A1A1A"/><stop offset="0.6374" style="stop-color:#1A1A1A"/><stop offset="0.7052" style="stop-color:#353535"/><stop offset="0.8078" style="stop-color:#585858"/><stop offset="0.8626" style="stop-color:#666666"/><stop offset="0.8851" style="stop-color:#5F5F5F"/><stop offset="0.9174" style="stop-color:#4C4C4C"/><stop offset="0.9555" style="stop-color:#2D2D2D"/><stop offset="0.9978" style="stop-color:#020202"/><stop offset="1" style="stop-color:#000000"/></linearGradient><path d="M180.988,391.67l-21.721,9.98c0,0,59.977,9.479,101.345,8.86c36.249-0.544,89.437-8.86,89.437-8.86  l-21.13-9.98H180.988z" fill="url(#SVGID_3_)"/><linearGradient gradientUnits="userSpaceOnUse" id="SVGID_4_" x1="180.9688" x2="328.8438" y1="372.6152" y2="372.6152"><stop offset="0" style="stop-color:#E7A419"/><stop offset="0.31" style="stop-color:#EFBF47"/><stop offset="0.5917" style="stop-color:#F5D36B"/><stop offset="0.7418" style="stop-color:#F7DB79"/><stop offset="0.7858" style="stop-color:#F6D772"/><stop offset="0.8489" style="stop-color:#F3CC5F"/><stop offset="0.9235" style="stop-color:#EEBB40"/><stop offset="1" style="stop-color:#E7A419"/></linearGradient><path d="M254.967,358.5c0,0-11.948-0.295-14.827,2.154c-13.718,11.667-59.171,20.502-59.171,20.502  s47.566,5.594,74.57,5.594s73.305-5.563,73.305-5.563s-49.395-13.274-58.182-20.533C267.604,358.127,254.967,358.5,254.967,358.5z" fill="url(#SVGID_4_)"/><linearGradient gradientUnits="userSpaceOnUse" id="SVGID_5_" x1="180.9321" x2="328.9189" y1="370.9102" y2="370.9102"><stop offset="0.0604" style="stop-color:#E7A419"/><stop offset="0.1978" style="stop-color:#F4D068"/><stop offset="0.3187" style="stop-color:#E7A419"/><stop offset="0.522" style="stop-color:#E7A419"/><stop offset="0.8022" style="stop-color:#F4D068"/><stop offset="0.9121" style="stop-color:#E7A419"/></linearGradient><path d="M254.967,357.2c0,0-11.948-0.287-14.827,2.091c-13.718,11.326-59.208,21.823-59.208,21.823  s41.193,3.261,74.607,3.51c35.835,0.267,73.38-3.473,73.38-3.473s-49.47-14.813-58.257-21.86  C267.604,356.837,254.967,357.2,254.967,357.2z" fill="url(#SVGID_5_)"/><linearGradient gradientUnits="userSpaceOnUse" id="SVGID_6_" x1="240.1396" x2="270.6621" y1="337.8838" y2="337.8838"><stop offset="0" style="stop-color:#E7A419"/><stop offset="0.2637" style="stop-color:#E7A419"/><stop offset="0.3639" style="stop-color:#E8A820"/><stop offset="0.5081" style="stop-color:#EBB333"/><stop offset="0.6787" style="stop-color:#F1C552"/><stop offset="0.8516" style="stop-color:#F7DB79"/><stop offset="0.8769" style="stop-color:#F6D772"/><stop offset="0.9132" style="stop-color:#F3CC5F"/><stop offset="0.956" style="stop-color:#EEBB40"/><stop offset="1" style="stop-color:#E7A419"/></linearGradient><path d="M270.662,359.291c0,0-2.824,3.875-15.329,3.875c-12.667,0-15.194-3.875-15.194-3.875v-46.689h30.522  V359.291z" fill="url(#SVGID_6_)"/><g><linearGradient gradientUnits="userSpaceOnUse" id="SVGID_7_" x1="171.2153" x2="338.8516" y1="169.957" y2="169.957"><stop offset="0" style="stop-color:#E7A419"/><stop offset="0.5" style="stop-color:#FFFFFF"/><stop offset="1" style="stop-color:#E7A419"/></linearGradient><path d="M314.657,271.182c0,10.202-17.102,44.508-59.389,44.508c-33.833,0-58.566-33.565-58.566-43.766   L171.215,50.188c0-5.096,33.715-25.963,83.818-25.963c59.001,0,83.818,20.859,83.818,25.963L314.657,271.182z" fill="url(#SVGID_7_)"/></g><radialGradient cx="533.3574" cy="173.7256" gradientTransform="matrix(-1 0 0 1 699.9531 0)" gradientUnits="userSpaceOnUse" id="SVGID_8_" r="79.6727"><stop offset="0" style="stop-color:#F2CF68"/><stop offset="0.1291" style="stop-color:#F2CD65"/><stop offset="0.2283" style="stop-color:#F0C85B"/><stop offset="0.3174" style="stop-color:#EEBF4B"/><stop offset="0.4002" style="stop-color:#EBB334"/><stop offset="0.4725" style="stop-color:#E7A419"/><stop offset="0.6247" style="stop-color:#E5A118"/><stop offset="0.7415" style="stop-color:#E09715"/><stop offset="0.8465" style="stop-color:#D78711"/><stop offset="0.9441" style="stop-color:#CA700A"/><stop offset="1" style="stop-color:#C05F05"/></radialGradient><path d="M131.667,68.543c0.631-8.892,13.511,16.416,32.215,18.75c11.457,1.429,15.429-3.19,15.429-3.19  l1.387,12.192c-3.027,1.14-7.461,2.239-12.98,1.969c-16.501-0.806-23.041-13.46-23.351-6.582  c-1.01,22.441,19.522,113.813,32.846,136.743c7.344,12.636,16.392,26.279,23.549,34.397l0.931,17.971  c0,0-18.548-16.806-35.171-44.193C143.098,198.014,129.831,94.529,131.667,68.543z" fill="url(#SVGID_8_)"/><linearGradient gradientTransform="matrix(-1 0 0 1 699.9531 0)" gradientUnits="userSpaceOnUse" id="SVGID_9_" x1="501.9785" x2="570.1055" y1="171.4019" y2="171.4019"><stop offset="0" style="stop-color:#E7A419"/><stop offset="0.1099" style="stop-color:#F2CF68"/><stop offset="0.3516" style="stop-color:#E7A419"/><stop offset="0.7033" style="stop-color:#E7A419"/><stop offset="0.8846" style="stop-color:#F2CF68"/><stop offset="1" style="stop-color:#E7A419"/></linearGradient><path d="M130.113,66.676c0.609-8.853,13.093,16.345,31.221,18.669c11.101,1.424,14.95-3.176,14.95-3.176  l1.345,12.14c-2.935,1.135-7.231,2.227-12.578,1.958c-15.993-0.8-23.365-14.602-23.938-6.971  c-1.671,22.301,13.016,100.861,32.072,139.208c5.773,11.617,15.971,24.43,22.908,32.511l1.881,16.989  c0,0-18.531-16.41-34.084-44.001C135.072,182.876,128.332,92.55,130.113,66.676z" fill="url(#SVGID_9_)"/><radialGradient cx="344.3564" cy="173.7256" gradientUnits="userSpaceOnUse" id="SVGID_10_" r="79.6727"><stop offset="0" style="stop-color:#F2CF68"/><stop offset="0.1291" style="stop-color:#F2CD65"/><stop offset="0.2283" style="stop-color:#F0C85B"/><stop offset="0.3174" style="stop-color:#EEBF4B"/><stop offset="0.4002" style="stop-color:#EBB334"/><stop offset="0.4725" style="stop-color:#E7A419"/><stop offset="0.6247" style="stop-color:#E5A118"/><stop offset="0.7415" style="stop-color:#E09715"/><stop offset="0.8465" style="stop-color:#D78711"/><stop offset="0.9441" style="stop-color:#CA700A"/><stop offset="1" style="stop-color:#C05F05"/></radialGradient><path d="M379.285,68.543c-0.63-8.892-13.512,16.416-32.216,18.75c-11.456,1.429-15.428-3.19-15.428-3.19  l-1.389,12.192c3.029,1.14,7.465,2.239,12.981,1.969c16.503-0.806,23.041-13.46,23.351-6.582  c1.01,22.441-19.521,113.813-32.844,136.743c-7.343,12.636-16.393,26.279-23.549,34.397l-0.934,17.971  c0,0,18.548-16.806,35.172-44.193C367.856,198.014,381.122,94.529,379.285,68.543z" fill="url(#SVGID_10_)"/><linearGradient gradientUnits="userSpaceOnUse" id="SVGID_11_" x1="312.9766" x2="381.1064" y1="171.4019" y2="171.4019"><stop offset="0" style="stop-color:#E7A419"/><stop offset="0.1099" style="stop-color:#F2CF68"/><stop offset="0.3516" style="stop-color:#E7A419"/><stop offset="0.7033" style="stop-color:#E7A419"/><stop offset="0.8846" style="stop-color:#F2CF68"/><stop offset="1" style="stop-color:#E7A419"/></linearGradient><path d="M380.841,66.676c-0.61-8.853-13.095,16.345-31.222,18.669c-11.104,1.424-14.951-3.176-14.951-3.176  l-1.344,12.14c2.933,1.135,7.232,2.227,12.576,1.958c15.995-0.8,23.368-14.602,23.939-6.971  c1.669,22.301-13.014,100.861-32.07,139.208c-5.774,11.617-15.973,24.43-22.908,32.511l-1.885,16.989  c0,0,18.534-16.41,34.087-44.001C375.883,182.876,382.621,92.55,380.841,66.676z" fill="url(#SVGID_11_)"/><g><linearGradient gradientUnits="userSpaceOnUse" id="SVGID_12_" x1="171.6665" x2="338.5" y1="172.3223" y2="172.3223"><stop offset="0" style="stop-color:#E7A419"/><stop offset="0.0934" style="stop-color:#F2CF68"/><stop offset="0.3516" style="stop-color:#E7A419"/><stop offset="0.7033" style="stop-color:#E7A419"/><stop offset="0.9341" style="stop-color:#F2CF68"/><stop offset="1" style="stop-color:#E7A419"/></linearGradient><path d="M314.354,273.357c0,10.226-16.973,44.62-58.952,44.62c-33.582,0-59.107-34.395-59.107-44.62   L171.667,52.5c0-5.108,33.934-25.833,83.667-25.833c58.566,0,83.167,21.383,83.167,26.5L314.354,273.357z" fill="url(#SVGID_12_)"/></g><g><defs><filter filterUnits="userSpaceOnUse" height="26.326" id="Adobe_OpacityMaskFilter" width="99.481" x="205.3" y="287.047"><feFlood result="back" style="flood-color:white;flood-opacity:1"/><feBlend in="SourceGraphic" in2="back" mode="normal"/></filter></defs><mask height="26.326" id="SVGID_13_" maskUnits="userSpaceOnUse" width="99.481" x="205.3" y="287.047"><g filter="url(#Adobe_OpacityMaskFilter)"/></mask><g mask="url(#SVGID_13_)"><path d="M205.3,287.047c0,0,8.476,17.193,50.2,17.953c51.57,0.938,49.266-17.447,49.266-17.447    s-8.006,25.82-49.312,25.82C218.727,313.373,205.3,287.047,205.3,287.047z" fill="#FFFFFF"/></g></g><g opacity="0.77"><defs><filter filterUnits="userSpaceOnUse" height="264.669" id="Adobe_OpacityMaskFilter_1_" width="46.517" x="176.483" y="38.998"><feFlood result="back" style="flood-color:white;flood-opacity:1"/><feBlend in="SourceGraphic" in2="back" mode="normal"/></filter></defs><mask height="264.669" id="SVGID_14_" maskUnits="userSpaceOnUse" width="46.517" x="176.483" y="38.998"><g filter="url(#Adobe_OpacityMaskFilter_1_)"/></mask><g mask="url(#SVGID_14_)"><path d="M205.022,39c0,0-9.68-0.332-21.31,7.114c-6.059,3.879-7.23,6.944-7.23,6.944    s12.962,156.509,24.906,219.486C204.331,288.059,223,303.667,223,303.667s-11.409-16.604-13.897-36.988    C190.813,116.864,205.022,39,205.022,39z" fill="#C05F05"/></g></g><g opacity="0.37"><defs><filter filterUnits="userSpaceOnUse" height="280.504" id="Adobe_OpacityMaskFilter_2_" width="43.333" x="234.5" y="27.83"><feFlood result="back" style="flood-color:white;flood-opacity:1"/><feBlend in="SourceGraphic" in2="back" mode="normal"/></filter></defs><mask height="280.504" id="SVGID_15_" maskUnits="userSpaceOnUse" width="43.333" x="234.5" y="27.83"><g filter="url(#Adobe_OpacityMaskFilter_2_)"/></mask><g mask="url(#SVGID_15_)"><linearGradient gradientUnits="userSpaceOnUse" id="SVGID_16_" x1="234.5" x2="277.833" y1="168.082" y2="168.082"><stop offset="0" style="stop-color:#F2CF68"/><stop offset="0.7651" style="stop-color:#CC7A1D"/><stop offset="1" style="stop-color:#C05F05"/></linearGradient><path d="M277.833,31.167c0,0-8.657-3.193-22.667-3.333C238.5,27.667,234.5,32.667,234.5,32.667    L258,308.334L277.833,31.167z" fill="url(#SVGID_16_)"/></g></g><g opacity="0.7"><defs><filter filterUnits="userSpaceOnUse" height="256.119" id="Adobe_OpacityMaskFilter_3_" width="39.276" x="294.541" y="40.944"><feFlood result="back" style="flood-color:white;flood-opacity:1"/><feBlend in="SourceGraphic" in2="back" mode="normal"/></filter></defs><mask height="256.119" id="SVGID_17_" maskUnits="userSpaceOnUse" width="39.276" x="294.541" y="40.944"><g filter="url(#Adobe_OpacityMaskFilter_3_)"/></mask><g mask="url(#SVGID_17_)"><path d="M310.111,40.957c0,0,8.523-0.465,16.735,4.184c6.107,3.458,6.971,6.971,6.971,6.971    s-13.479,167.329-24.015,220.315c-1.068,5.378-15.262,24.636-15.262,24.636s7.377-24.56,7.827-30.523    C313.754,115.557,310.111,40.957,310.111,40.957z" fill="#FFFFFF"/></g></g><linearGradient gradientUnits="userSpaceOnUse" id="SVGID_18_" x1="179.9878" x2="327.9189" y1="389.1699" y2="389.1699"><stop offset="0" style="stop-color:#E7A419"/><stop offset="0.0482" style="stop-color:#EFBF47"/><stop offset="0.092" style="stop-color:#F5D36B"/><stop offset="0.1154" style="stop-color:#F7DB79"/><stop offset="0.1369" style="stop-color:#F6D772"/><stop offset="0.1678" style="stop-color:#F3CC5F"/><stop offset="0.2043" style="stop-color:#EEBB40"/><stop offset="0.2418" style="stop-color:#E7A419"/><stop offset="0.6648" style="stop-color:#E7A419"/><stop offset="0.7452" style="stop-color:#EFBF47"/><stop offset="0.8182" style="stop-color:#F5D36B"/><stop offset="0.8571" style="stop-color:#F7DB79"/><stop offset="0.8815" style="stop-color:#F6D772"/><stop offset="0.9164" style="stop-color:#F3CC5F"/><stop offset="0.9577" style="stop-color:#EEBB40"/><stop offset="1" style="stop-color:#E7A419"/></linearGradient><path d="M256.25,386.25c-27.75,0-76.262-5.108-76.262-5.108v10.528c0,0,41.2,5.207,76.834,5.518  c32.227,0.278,71.097-5.518,71.097-5.518v-10.528C327.919,381.142,282.501,386.25,256.25,386.25z" fill="url(#SVGID_18_)"/><linearGradient gradientUnits="userSpaceOnUse" id="SVGID_19_" x1="286.7959" x2="342.9099" y1="166.7495" y2="101.5637"><stop offset="0" style="stop-color:#000000"/><stop offset="0.2897" style="stop-color:#020202"/><stop offset="0.4273" style="stop-color:#0A0A0A"/><stop offset="0.5329" style="stop-color:#171717"/><stop offset="0.6221" style="stop-color:#292929"/><stop offset="0.701" style="stop-color:#414141"/><stop offset="0.7726" style="stop-color:#5E5E5E"/><stop offset="0.8387" style="stop-color:#828282"/><stop offset="0.9006" style="stop-color:#AAAAAA"/><stop offset="0.9567" style="stop-color:#D7D7D7"/><stop offset="1" style="stop-color:#FFFFFF"/></linearGradient><path d="M291.5,30.25c0,0,0.75-0.833,16.208,3.625c12.635,3.645,14.75,5.958,14.75,5.958  s-0.83,69.564-9.333,127.833c-18.333,125.638-41,147.125-41,147.125S289,297.168,292.333,155.333  C293.037,125.375,291.5,30.25,291.5,30.25z" fill="url(#SVGID_19_)" opacity="0.29"/><g opacity="0.7"><defs><filter filterUnits="userSpaceOnUse" height="265.669" id="Adobe_OpacityMaskFilter_4_" width="54.517" x="185.149" y="35.331"><feFlood result="back" style="flood-color:white;flood-opacity:1"/><feBlend in="SourceGraphic" in2="back" mode="normal"/></filter></defs><mask height="265.669" id="SVGID_20_" maskUnits="userSpaceOnUse" width="54.517" x="185.149" y="35.331"><g filter="url(#Adobe_OpacityMaskFilter_4_)"/></mask><g mask="url(#SVGID_20_)"><path d="M218.596,35.333c0,0-11.344-0.333-24.973,7.141c-7.101,3.894-8.474,6.971-8.474,6.971    s15.191,157.101,29.189,220.315c3.448,15.574,25.328,31.24,25.328,31.24s-13.371-16.666-16.287-37.127    C201.944,113.492,218.596,35.333,218.596,35.333z" fill="#FFFFFF"/></g></g><g opacity="0.63"><defs><filter filterUnits="userSpaceOnUse" height="31" id="Adobe_OpacityMaskFilter_5_" width="102.533" x="205.983" y="285"><feFlood result="back" style="flood-color:white;flood-opacity:1"/><feBlend in="SourceGraphic" in2="back" mode="normal"/></filter></defs><mask height="31" id="SVGID_21_" maskUnits="userSpaceOnUse" width="102.533" x="205.983" y="285"><g filter="url(#Adobe_OpacityMaskFilter_5_)"/></mask><g mask="url(#SVGID_21_)"><path d="M257.25,316c25.402,0,46.563-13.333,51.267-31c0,0-15.517,21.831-51.517,21.831    c-34.5,0-51.017-21.831-51.017-21.831C210.688,302.667,231.847,316,257.25,316z" fill="#C05F05"/></g></g><g opacity="0.31"><defs><filter filterUnits="userSpaceOnUse" height="23.606" id="Adobe_OpacityMaskFilter_6_" width="165.285" x="172.957" y="28.747"><feFlood result="back" style="flood-color:white;flood-opacity:1"/><feBlend in="SourceGraphic" in2="back" mode="normal"/></filter></defs><mask height="23.606" id="SVGID_22_" maskUnits="userSpaceOnUse" width="165.285" x="172.957" y="28.747"><g filter="url(#Adobe_OpacityMaskFilter_6_)"/></mask><g mask="url(#SVGID_22_)"><path d="M172.957,52.119c0,0,30.484-22.395,80.499-23.338c56.686-1.069,84.786,23.573,84.786,23.573    s-40.724-20.743-84.548-18.385C210.151,36.309,172.957,52.119,172.957,52.119z" fill="#FFFFFF"/></g></g></svg>